<svg xmlns="http://www.w3.org/2000/svg" viewBox="0 0 400 300" width="400" height="300">
  <rect width="400" height="300" fill="#f8f9fa"/>
  <path d="M160 80 Q160 70 170 70 L230 70 Q240 70 240 80 L240 100 Q240 110 250 110 L280 110 Q290 110 290 120 L290 250 Q290 260 280 260 L120 260 Q110 260 110 250 L110 120 Q110 110 120 110 L150 110 Q160 110 160 100 Z" fill="#8e24aa"/>
  <path d="M170 70 Q170 60 180 60 L220 60 Q230 60 230 70" fill="none" stroke="#7b1fa2" stroke-width="3"/>
  <path d="M160 100 Q200 120 240 100" fill="none" stroke="#6a1b9a" stroke-width="2"/>
  <circle cx="200" cy="180" r="15" fill="#d4af37"/>
  <text x="200" y="185" text-anchor="middle" fill="#fff" font-family="serif" font-size="10">★</text>
</svg>